PathFileType  4	(X/Y/Z) C:\Users\antoi\Documents\MyRepositories\mobilecap\ResultsAnalysis
DataRate	CameraRate	NumFrames	NumMarkers	Units	OrigDataRate	OrigDataStartFrame	OrigNumFrames
100.0	100.0	5	51	mm	100.0	701	801
Frame#	Time	r_knee			r_shank_antsup			r_ankle			r_calc			r_5meta			r_toe			L_knee			L_shank_antsup			L_ankle			L_calc			L_5meta			L_toe			r_sh2			r_sh3			r_sh4			L_sh2			L_sh3			r_thigh1			r_thigh2			r_thigh3			r_thigh4			r_thigh5			L_thigh1			L_thigh2			L_thigh3			L_thigh4			r.ASIS			r.PSIS			L.ASIS			L.PSIS			C7			R_Shoulder			L_Shoulder			R_Sternum			L_Sternum			R_humerus			R_elbow_med			R_elbow_lat			R_forearm			R_wrist_radius			R_wrist_ulna			L_humerus			L_elbow_med			L_elbow_lat			L_forearm			L_wrist_radius			L_wrist_ulna			R_HJC			L_HJC			R_HJC_reg			L_HJC_reg			
		X1	Y1	Z1	X2	Y2	Z2	X3	Y3	Z3	X4	Y4	Z4	X5	Y5	Z5	X6	Y6	Z6	X7	Y7	Z7	X8	Y8	Z8	X9	Y9	Z9	X10	Y10	Z10	X11	Y11	Z11	X12	Y12	Z12	X13	Y13	Z13	X14	Y14	Z14	X15	Y15	Z15	X16	Y16	Z16	X17	Y17	Z17	X18	Y18	Z18	X19	Y19	Z19	X20	Y20	Z20	X21	Y21	Z21	X22	Y22	Z22	X23	Y23	Z23	X24	Y24	Z24	X25	Y25	Z25	X26	Y26	Z26	X27	Y27	Z27	X28	Y28	Z28	X29	Y29	Z29	X30	Y30	Z30	X31	Y31	Z31	X32	Y32	Z32	X33	Y33	Z33	X34	Y34	Z34	X35	Y35	Z35	X36	Y36	Z36	X37	Y37	Z37	X38	Y38	Z38	X39	Y39	Z39	X40	Y40	Z40	X41	Y41	Z41	X42	Y42	Z42	X43	Y43	Z43	X44	Y44	Z44	X45	Y45	Z45	X46	Y46	Z46	X47	Y47	Z47	X48	Y48	Z48	X49	Y49	Z49	X50	Y50	Z50	X51	Y51	Z51	

701	7.00000000	-173.39971	583.81959	-338.74399	-147.42271	441.57135	-322.96330	-292.19258	104.80129	-307.94434	-350.86634	72.26321	-366.89841	-159.92665	43.14742	-268.98017	-120.74499	71.82278	-319.39336	-177.75551	577.18673	-858.31130	-144.96205	381.58951	-866.08939	-300.95749	112.92469	-879.13553	-358.96764	71.54656	-818.39516	-164.81760	37.41545	-927.13007	-121.48539	68.24319	-868.95611	-178.13151	332.88907	-321.70876	-215.26372	458.12317	-296.58119	-248.95268	351.13169	-284.66253	-214.44799	414.38981	-909.67052	-255.68364	302.33697	-901.44562	-393.90578	776.75236	-353.87425	-294.07654	728.97653	-338.20536	-303.57318	661.13201	-329.32815	-445.33481	675.66998	-368.62897	-338.18131	623.15745	-352.36135	-381.07097	791.00060	-804.79979	-266.82903	725.84847	-834.16137	-444.34989	703.39465	-823.59162	-326.72853	638.59228	-861.98518	-412.58188	834.47596	-440.46092	-538.18893	952.13215	-549.93486	-407.38991	804.82176	-714.39913	-531.14153	947.02676	-639.27050	-85.14998	1141.27523	-585.92460	-20.18525	1067.52488	-436.89352	-29.07121	1080.09891	-730.08210	-36.26134	980.28337	-560.80277	-37.10671	978.88538	-602.32941	103.25274	896.87647	-356.68470	119.36002	739.08238	-342.20146	143.79653	795.31892	-278.51737	303.39197	861.19784	-406.25179	367.05292	889.26241	-459.66155	385.82303	860.05380	-448.28628	116.32795	892.07788	-797.68803	99.62253	757.34983	-816.36903	148.50588	806.95364	-864.41639	306.07789	854.70485	-736.71604	352.48637	874.66961	-683.69426	368.76047	849.20104	-700.25715	-528.56151	796.62090	-479.84257	-525.32321	782.01673	-676.75112	-520.12034	792.51754	-485.85872	-505.83907	782.17121	-666.88951	
702	7.01000000	-170.86168	582.56950	-336.50426	-145.12004	440.57975	-320.74051	-292.15231	104.75105	-307.85111	-350.78279	72.34964	-366.87693	-160.04534	42.76604	-268.79709	-120.69187	71.55686	-319.14196	-174.95876	575.65518	-857.24206	-142.87083	380.26705	-864.64210	-300.62542	113.08119	-878.74460	-358.89684	71.51829	-818.15151	-164.78966	37.56507	-926.93583	-121.40757	68.25417	-868.77875	-176.68652	332.18893	-320.17552	-212.99947	457.33693	-294.67752	-247.42850	350.61331	-283.27421	-211.90283	413.71058	-908.64146	-253.97879	302.14944	-900.81313	-395.25172	771.47934	-352.85596	-294.47923	725.41411	-336.47174	-302.77271	657.52718	-327.31116	-444.50712	669.13796	-367.59416	-336.45427	618.60120	-350.88790	-382.38854	785.39236	-804.33093	-266.81985	722.43223	-833.39759	-443.96640	696.71753	-823.23775	-325.11803	634.04328	-861.25085	-413.45065	826.67126	-441.18307	-539.78672	943.02670	-550.26678	-408.51828	796.94384	-715.26748	-533.02759	938.11706	-639.44068	-84.71002	1129.51379	-585.83493	-19.99501	1055.63563	-436.97211	-28.64668	1067.78524	-729.69295	-37.21461	967.88938	-560.15392	-37.88145	967.20937	-602.01151	104.08601	886.34710	-356.15281	120.47942	728.57962	-340.42782	144.71564	785.39126	-277.30354	304.17746	850.92575	-405.73911	367.63898	878.86000	-459.47169	386.51718	849.89317	-447.41723	117.03184	880.31312	-797.42754	100.86650	745.68522	-816.78392	149.46433	795.46012	-864.16998	306.85008	843.42719	-736.22932	353.02042	863.36863	-683.00790	369.50377	837.98329	-699.62648	-529.02085	787.74564	-480.26179	-526.15379	773.23428	-677.18309	-520.55510	783.60938	-486.25535	-506.82060	773.63300	-667.44736	
703	7.02000000	-168.43913	581.36704	-334.01951	-142.87284	439.52076	-318.47567	-292.10750	104.64056	-307.61953	-350.68984	72.44808	-366.84605	-160.05875	42.42464	-268.49694	-120.63818	71.28264	-318.66165	-172.30236	574.16966	-856.40290	-140.87129	378.96950	-863.29251	-300.25730	113.30747	-878.49854	-358.81366	71.53983	-817.88803	-164.78825	37.66647	-926.73444	-121.30716	68.21242	-868.59935	-175.21522	331.15932	-318.60888	-210.78325	456.55351	-292.50188	-245.91526	350.07497	-281.73931	-209.50424	413.17579	-907.92745	-252.42093	301.88679	-900.19820	-396.23836	766.11903	-352.00793	-294.70540	721.91736	-334.88818	-301.90431	653.97804	-325.27224	-443.54907	662.86106	-366.24160	-334.63948	614.13986	-349.16430	-383.61870	779.84709	-803.79021	-266.79448	719.25793	-832.85637	-443.50061	690.25075	-823.00821	-323.50324	629.70748	-860.73208	-413.82081	819.22128	-441.16841	-541.43639	934.23748	-550.44632	-409.31683	789.65782	-715.85868	-534.92777	929.51269	-639.40540	-84.39328	1118.36757	-585.62832	-19.99660	1043.90778	-437.13666	-28.49571	1056.28884	-729.26488	-38.14649	956.32681	-559.72677	-38.70837	956.03826	-601.66679	104.63829	876.22174	-355.61150	121.46642	718.45125	-338.87611	145.68603	775.94827	-276.01777	304.81918	840.98485	-405.20432	368.18870	868.72846	-459.43039	387.06947	839.99648	-446.79421	117.47273	869.23951	-796.93173	101.69051	734.69025	-816.82997	150.14421	784.70501	-863.76928	307.38112	832.74434	-735.52288	353.36579	852.54727	-682.36901	370.06662	827.26500	-698.90889	-529.09013	779.14773	-480.34197	-526.53614	764.72490	-677.27463	-520.66234	774.89535	-486.04074	-507.37442	765.24923	-667.66704	
704	7.03000000	-166.14781	580.26934	-331.49890	-140.64251	438.50127	-316.30347	-292.01982	104.52488	-307.33348	-350.58037	72.60892	-366.77889	-160.00891	42.09556	-268.19809	-120.61584	71.01703	-318.12756	-169.81042	572.70959	-855.90250	-138.90882	377.82154	-862.45844	-299.87803	113.41391	-878.23980	-358.72641	71.53005	-817.65066	-164.80562	37.70549	-926.61213	-121.13243	68.08725	-868.41436	-173.60591	329.87274	-317.17284	-208.45471	455.72798	-290.28194	-244.25062	349.45290	-280.08829	-207.29157	412.64440	-907.46269	-250.91524	301.44906	-899.69760	-396.80416	760.67624	-351.21393	-294.69113	718.59199	-333.37299	-300.92830	650.40985	-323.64902	-442.48317	656.87495	-364.84618	-332.82272	609.90058	-347.38182	-384.71268	774.47852	-803.30391	-266.80953	716.11155	-832.43418	-442.98448	683.88746	-822.76172	-321.87671	625.53193	-860.51347	-414.06649	812.27981	-440.59844	-543.06086	925.80252	-550.45694	-409.90358	782.74061	-715.99876	-536.76640	921.20678	-639.07856	-84.20925	1107.90084	-585.18879	-20.00768	1032.57788	-437.17884	-28.51736	1045.59564	-728.72391	-39.00927	945.50970	-559.48425	-39.84325	944.65757	-601.18124	104.97647	866.45556	-355.07359	122.24767	708.70421	-337.46923	146.60064	766.75524	-274.98637	305.31749	831.30474	-404.64151	368.64013	858.95108	-459.28660	387.58286	830.33824	-446.43306	117.66798	858.98026	-796.21140	102.12599	724.44500	-816.19987	150.50738	774.61530	-863.14721	307.65699	822.63408	-734.62719	353.55484	842.32784	-681.66068	370.33050	817.20378	-698.16249	-529.02693	770.97905	-480.01783	-526.66537	756.48597	-676.94764	-520.63899	766.57452	-485.31669	-507.70372	757.13007	-667.44130	
705	7.04000000	-163.97568	579.19467	-329.20013	-138.46794	437.50471	-314.45683	-291.92467	104.49149	-307.11441	-350.45849	72.80533	-366.71893	-159.99610	41.79516	-267.95683	-120.61998	70.72144	-317.78508	-167.45848	571.32019	-855.89762	-137.04936	376.79980	-862.25373	-299.50772	113.37702	-877.92767	-358.53333	71.36135	-817.39506	-164.82427	37.69772	-926.56291	-120.96752	67.93790	-868.32781	-171.68233	329.27409	-315.64839	-206.11617	454.87608	-288.08433	-242.46452	348.74638	-278.35855	-205.26202	411.92663	-907.13637	-249.46297	300.93447	-899.48988	-397.23061	755.51331	-350.31186	-294.48782	715.47394	-331.81737	-299.88342	647.06556	-322.18275	-441.38981	651.16756	-363.61266	-331.09519	605.97697	-345.66619	-385.61061	769.34128	-803.13474	-266.80048	712.89720	-832.19884	-442.45249	677.66426	-822.48718	-320.32595	621.44810	-860.47222	-414.59986	805.61051	-440.35908	-544.57778	917.71036	-550.31304	-410.65802	775.87077	-716.01160	-538.49804	913.20401	-638.66254	-84.14314	1098.17063	-584.51197	-19.96905	1022.16829	-436.96215	-28.64523	1035.65506	-728.03470	-39.90942	935.31656	-559.11738	-41.14254	933.79377	-600.83393	105.24944	857.09576	-354.51006	122.90516	699.50302	-336.28930	147.21251	757.67404	-274.24084	305.72024	821.91780	-404.13425	368.89238	849.56235	-459.02342	388.00206	821.01689	-446.12725	117.60906	849.57797	-795.44332	102.31738	715.00428	-815.33353	150.54262	765.03439	-862.32905	307.73481	813.16978	-733.69429	353.57601	832.78205	-680.69223	370.39113	807.89543	-697.44318	-529.17923	763.17937	-479.66464	-527.05397	748.57325	-676.58856	-520.77522	758.71737	-484.83018	-508.22724	749.41693	-667.16716	
